<svg version="1.1" xmlns="http://www.w3.org/2000/svg" xmlns:xlink="http://www.w3.org/1999/xlink" width="643.5" height="102.575" viewBox="0,0,643.5,102.575"><defs><linearGradient x1="318.5" y1="157.33334" x2="318.5" y2="205" gradientUnits="userSpaceOnUse" id="color-1"><stop offset="0" stop-color="#565656"/><stop offset="1" stop-color="#3c3c3c"/></linearGradient><radialGradient cx="28.25" cy="180.75" r="19" gradientUnits="userSpaceOnUse" id="color-2"><stop offset="0" stop-color="#000000"/><stop offset="1" stop-color="#3c3c3c"/></radialGradient><radialGradient cx="28.25" cy="181.03572" r="8.28572" gradientUnits="userSpaceOnUse" id="color-3"><stop offset="0" stop-color="#3c3c3c"/><stop offset="1" stop-color="#525252"/></radialGradient><radialGradient cx="157.25" cy="123.75" r="19" gradientUnits="userSpaceOnUse" id="color-4"><stop offset="0" stop-color="#000000"/><stop offset="1" stop-color="#3c3c3c"/></radialGradient><radialGradient cx="157.25" cy="124.03572" r="8.28572" gradientUnits="userSpaceOnUse" id="color-5"><stop offset="0" stop-color="#3c3c3c"/><stop offset="1" stop-color="#525252"/></radialGradient><radialGradient cx="609.25" cy="180.75" r="19" gradientUnits="userSpaceOnUse" id="color-6"><stop offset="0" stop-color="#000000"/><stop offset="1" stop-color="#3c3c3c"/></radialGradient><radialGradient cx="609.25" cy="181.03572" r="8.28571" gradientUnits="userSpaceOnUse" id="color-7"><stop offset="0" stop-color="#3c3c3c"/><stop offset="1" stop-color="#525252"/></radialGradient><radialGradient cx="70.25" cy="180.75" r="19" gradientUnits="userSpaceOnUse" id="color-8"><stop offset="0" stop-color="#000000"/><stop offset="1" stop-color="#3c3c3c"/></radialGradient><radialGradient cx="70.25" cy="181.03572" r="8.28571" gradientUnits="userSpaceOnUse" id="color-9"><stop offset="0" stop-color="#3c3c3c"/><stop offset="1" stop-color="#525252"/></radialGradient><radialGradient cx="566.25" cy="180.75" r="19" gradientUnits="userSpaceOnUse" id="color-10"><stop offset="0" stop-color="#000000"/><stop offset="1" stop-color="#3c3c3c"/></radialGradient><radialGradient cx="566.25" cy="181.03572" r="8.28571" gradientUnits="userSpaceOnUse" id="color-11"><stop offset="0" stop-color="#3c3c3c"/><stop offset="1" stop-color="#525252"/></radialGradient></defs><g transform="translate(3.25,-103.5)"><g stroke-miterlimit="10"><path d="M-3,205v-47.66666h643v47.66666z" fill="url(#color-1)" stroke="#000000" stroke-width="0.5"/><path d="M9.25,180.75c0,-10.49341 8.50659,-19 19,-19c10.49341,0 19,8.50659 19,19c0,10.49341 -8.50659,19 -19,19c-10.49341,0 -19,-8.50659 -19,-19z" fill="url(#color-2)" stroke="#000000" stroke-width="2.5"/><path d="M19.96429,181.03572c0,-4.57608 3.70964,-8.28572 8.28572,-8.28572c4.57608,0 8.28572,3.70964 8.28572,8.28572c0,4.57608 -3.70964,8.28571 -8.28572,8.28571c-4.57607,0 -8.28571,-3.70964 -8.28571,-8.28571z" fill="url(#color-3)" stroke="#000000" stroke-width="2.5"/><path d="M138.25,123.75c0,-10.49341 8.50659,-19 19,-19c10.49341,0 19,8.50659 19,19c0,10.49341 -8.50659,19 -19,19c-10.49341,0 -19,-8.50659 -19,-19z" fill="url(#color-4)" stroke="#000000" stroke-width="2.5"/><path d="M148.96428,124.03572c0,-4.57608 3.70964,-8.28571 8.28572,-8.28571c4.57608,0 8.28572,3.70964 8.28572,8.28571c0,4.57607 -3.70964,8.28571 -8.28572,8.28571c-4.57608,0 -8.28572,-3.70964 -8.28572,-8.28571z" fill="url(#color-5)" stroke="#000000" stroke-width="2.5"/><path d="M590.25,180.75c0,-10.49341 8.50659,-19 19,-19c10.49341,0 19,8.50659 19,19c0,10.49341 -8.50659,19 -19,19c-10.49341,0 -19,-8.50659 -19,-19z" fill="url(#color-6)" stroke="#000000" stroke-width="2.5"/><path d="M600.96429,181.03572c0,-4.57608 3.70964,-8.28572 8.28571,-8.28572c4.57607,0 8.28571,3.70964 8.28571,8.28572c0,4.57608 -3.70964,8.28571 -8.28571,8.28571c-4.57607,0 -8.28571,-3.70964 -8.28571,-8.28571z" fill="url(#color-7)" stroke="#000000" stroke-width="2.5"/><path d="M51.25,180.75c0,-10.49341 8.50659,-19 19,-19c10.49341,0 19,8.50659 19,19c0,10.49341 -8.50659,19 -19,19c-10.49341,0 -19,-8.50659 -19,-19z" fill="url(#color-8)" stroke="#000000" stroke-width="2.5"/><path d="M61.96428,181.03572c0,-4.57608 3.70964,-8.28572 8.28572,-8.28572c4.57608,0 8.28571,3.70964 8.28571,8.28572c0,4.57608 -3.70964,8.28571 -8.28571,8.28571c-4.57608,0 -8.28572,-3.70964 -8.28572,-8.28571z" fill="url(#color-9)" stroke="#000000" stroke-width="2.5"/><path d="M547.25,180.75c0,-10.49341 8.50659,-19 19,-19c10.49341,0 19,8.50659 19,19c0,10.49341 -8.50659,19 -19,19c-10.49341,0 -19,-8.50659 -19,-19z" fill="url(#color-10)" stroke="#000000" stroke-width="2.5"/><path d="M557.96429,181.03572c0,-4.57608 3.70964,-8.28571 8.28571,-8.28571c4.57607,0 8.28571,3.70964 8.28571,8.28571c0,4.57608 -3.70964,8.28571 -8.28571,8.28571c-4.57607,0 -8.28571,-3.70964 -8.28571,-8.28571z" fill="url(#color-11)" stroke="#000000" stroke-width="2.5"/><path d="M199.25,199.75v-37h336v37z" fill="#000000" stroke="#000000" stroke-width="2.5"/><text transform="translate(526.25,150.75) scale(0.5,0.5)" font-size="40" xml:space="preserve" fill="#000000" stroke="none" stroke-width="1" font-family="Sans Serif" font-weight="normal" text-anchor="start"><tspan x="0" dy="0">scrappybird</tspan></text><text transform="translate(210.25,188.75) scale(0.31847,0.5)" font-size="40" xml:space="preserve" fill="#8cff00" stroke="none" stroke-width="1" font-family="Pixel" font-weight="normal" text-anchor="start"><tspan x="0" dy="0">AB Seasons Summer Theme (BM Default Theme)</tspan></text><text transform="translate(101.25,177.75) scale(0.5,0.5)" font-size="40" xml:space="preserve" fill="#000000" stroke="none" stroke-width="1" font-family="Pixel" font-weight="normal" text-anchor="start"><tspan x="0" dy="0">click for</tspan><tspan x="0" dy="46.15px">next</tspan></text></g></g></svg>